<svg width="100%" height="100%" viewBox="0 0 24 24" fill="none" xmlns="http://www.w3.org/2000/svg">
<path d="M6.08994 19H18.0899L16.7899 20.29C16.6016 20.4783 16.4958 20.7337 16.4958 21C16.4958 21.2663 16.6016 21.5217 16.7899 21.71C16.9782 21.8983 17.2336 22.0041 17.4999 22.0041C17.7662 22.0041 18.0216 21.8983 18.2099 21.71L21.2099 18.71C21.3037 18.617 21.3781 18.5064 21.4288 18.3846C21.4796 18.2627 21.5057 18.132 21.5057 18C21.5057 17.868 21.4796 17.7373 21.4288 17.6154C21.3781 17.4936 21.3037 17.383 21.2099 17.29L18.2099 14.29C18.117 14.1963 18.0064 14.1219 17.8845 14.0711C17.7627 14.0203 17.632 13.9942 17.4999 13.9942C17.3679 13.9942 17.2372 14.0203 17.1154 14.0711C16.9935 14.1219 16.8829 14.1963 16.7899 14.29C16.6962 14.383 16.6218 14.4936 16.571 14.6154C16.5203 14.7373 16.4941 14.868 16.4941 15C16.4941 15.132 16.5203 15.2627 16.571 15.3846C16.6218 15.5064 16.6962 15.617 16.7899 15.71L18.0899 17H6.08994C5.88507 17.004 5.68142 16.9676 5.49063 16.8928C5.29983 16.8181 5.12564 16.7065 4.97798 16.5644C4.83033 16.4223 4.71212 16.2525 4.63009 16.0647C4.54807 15.877 4.50384 15.6749 4.49994 15.47V13C4.49994 12.7348 4.39458 12.4804 4.20705 12.2929C4.01951 12.1054 3.76516 12 3.49994 12C3.23472 12 2.98037 12.1054 2.79283 12.2929C2.6053 12.4804 2.49994 12.7348 2.49994 13V15.47C2.50386 15.9375 2.59983 16.3997 2.78237 16.8301C2.96492 17.2605 3.23045 17.6508 3.56382 17.9785C3.89718 18.3063 4.29185 18.5653 4.72528 18.7405C5.15872 18.9158 5.62243 19.004 6.08994 19ZM5.78994 9.71C5.97824 9.8983 6.23364 10.0041 6.49994 10.0041C6.76624 10.0041 7.02164 9.8983 7.20994 9.71C7.39824 9.5217 7.50403 9.2663 7.50403 9C7.50403 8.7337 7.39824 8.4783 7.20994 8.29L5.90994 7H17.9099C18.1148 6.99602 18.3185 7.03245 18.5093 7.10719C18.7 7.18193 18.8742 7.29353 19.0219 7.43561C19.1695 7.5777 19.2878 7.74747 19.3698 7.93525C19.4518 8.12303 19.496 8.32513 19.4999 8.53V11C19.4999 11.2652 19.6053 11.5196 19.7928 11.7071C19.9804 11.8946 20.2347 12 20.4999 12C20.7652 12 21.0195 11.8946 21.207 11.7071C21.3946 11.5196 21.4999 11.2652 21.4999 11V8.53C21.496 8.06249 21.4 7.60033 21.2175 7.16991C21.035 6.73949 20.7694 6.34924 20.4361 6.02145C20.1027 5.69366 19.708 5.43474 19.2746 5.25947C18.8412 5.08421 18.3774 4.99604 17.9099 5H5.90994L7.20994 3.71C7.30367 3.61704 7.37806 3.50644 7.42883 3.38458C7.4796 3.26272 7.50574 3.13201 7.50574 3C7.50574 2.86799 7.4796 2.73728 7.42883 2.61542C7.37806 2.49356 7.30367 2.38296 7.20994 2.29C7.11698 2.19627 7.00638 2.12188 6.88452 2.07111C6.76266 2.02034 6.63195 1.9942 6.49994 1.9942C6.36793 1.9942 6.23722 2.02034 6.11536 2.07111C5.9935 2.12188 5.8829 2.19627 5.78994 2.29L2.78994 5.29C2.69621 5.38296 2.62182 5.49356 2.57105 5.61542C2.52028 5.73728 2.49414 5.86799 2.49414 6C2.49414 6.13201 2.52028 6.26272 2.57105 6.38458C2.62182 6.50644 2.69621 6.61704 2.78994 6.71L5.78994 9.71Z" fill="white"/>
</svg>
